ffmpeg started on 2026-01-20 at 13:47:49
Report written to "D:\Convert\FFMetrics\reports\ssim_report-6.txt"
Log level: 32
Command line:
ffmpeg -hide_banner -nostdin -r 24000/1001 -i "F:\\Convert\\files\\[DC] Make Heroine ga Oosugiru - 07_Telegram_HEVC(199).mkv" -r 24000/1001 -i "F:\\Convert\\files\\[DC] Make Heroine ga Oosugiru - 07_Telegram.mp4" -lavfi "[0:v]settb=AVTB,setpts=PTS-STARTPTS,format=pix_fmts=yuv420p10le,fps=24000/1001,scale=1920:1080:flags=lanczos:param0=3:out_range=limited:out_color_matrix=bt709:out_chroma_loc=left,setsar=1/1,setdar=(1920/1080)*(1/1),colorspace=format=yuv420p10:range=tv:primaries=bt709:trc=bt709:space=bt709:fast=0[main];[1:v]settb=AVTB,setpts=PTS-STARTPTS,format=pix_fmts=yuv420p,fps=24000/1001,scale=1920:1080:flags=lanczos:param0=3:out_range=limited:out_color_matrix=bt709:out_chroma_loc=left,setsar=1.000,setdar=1.778,colorspace=format=yuv420p:range=tv:primaries=bt709:trc=bt709:space=bt709:fast=0[ref];[main][ref]ssim=eof_action=endall:stats_file='D\\:/Convert/FFMetrics/logs/ssim_logfile-6.txt'" -f null -
Input #0, matroska,webm, from 'F:\Convert\files\[DC] Make Heroine ga Oosugiru - 07_Telegram_HEVC(199).mkv':
  Metadata:
    COMPATIBLE_BRANDS: isomiso2avc1mp41
    MAJOR_BRAND     : isom
    MINOR_VERSION   : 512
    ENCODER         : Lavf61.7.100
  Duration: 00:24:06.79, start: -0.021000, bitrate: 969 kb/s
  Stream #0:0: Video: hevc (Main 10), yuv420p10le(tv, bt709, progressive), 1920x1080 [SAR 1:1 DAR 16:9], 23.98 fps, 23.98 tbr, 1k tbn (default)
      Metadata:
        HANDLER_NAME    : VideoHandler
        VENDOR_ID       : [0][0][0][0]
        ENCODER         : Lavc61.19.100 libx265
        BPS             : 771907
        DURATION        : 00:24:06.569708333
        NUMBER_OF_FRAMES: 34683
        NUMBER_OF_BYTES : 139577175
        _STATISTICS_WRITING_APP: mkvpropedit v94.0 ('Initiate') 64-bit
        _STATISTICS_WRITING_DATE_UTC: 2026-01-19 18:23:55
        _STATISTICS_TAGS: BPS DURATION NUMBER_OF_FRAMES NUMBER_OF_BYTES
  Stream #0:1: Audio: aac (LC), 48000 Hz, stereo, fltp (default)
      Metadata:
        HANDLER_NAME    : SoundHandler
        VENDOR_ID       : [0][0][0][0]
        ENCODER         : Lavc61.19.100 aac
        BPS             : 193194
        DURATION        : 00:24:06.784000000
        NUMBER_OF_FRAMES: 67819
        NUMBER_OF_BYTES : 34938755
        _STATISTICS_WRITING_APP: mkvpropedit v94.0 ('Initiate') 64-bit
        _STATISTICS_WRITING_DATE_UTC: 2026-01-19 18:23:55
        _STATISTICS_TAGS: BPS DURATION NUMBER_OF_FRAMES NUMBER_OF_BYTES
Input #1, mov,mp4,m4a,3gp,3g2,mj2, from 'F:\Convert\files\[DC] Make Heroine ga Oosugiru - 07_Telegram.mp4':
  Metadata:
    major_brand     : isom
    minor_version   : 512
    compatible_brands: isomiso2avc1mp41
    encoder         : Lavf60.16.100
  Duration: 00:24:06.74, start: 0.000000, bitrate: 3764 kb/s
  Stream #1:0[0x1](und): Video: h264 (High) (avc1 / 0x31637661), yuv420p(tv, bt709, progressive), 1920x1080 [SAR 1:1 DAR 16:9], 3616 kb/s, 23.98 fps, 23.98 tbr, 24k tbn (default)
      Metadata:
        handler_name    : VideoHandler
        vendor_id       : [0][0][0][0]
        encoder         : Lavc60.31.102 h264_qsv
  Stream #1:1[0x2](und): Audio: aac (HE-AACv2) (mp4a / 0x6134706D), 48000 Hz, stereo, fltp, 144 kb/s (default)
      Metadata:
        handler_name    : SoundHandler
        vendor_id       : [0][0][0][0]
Stream mapping:
  Stream #0:0 (hevc) -> settb:default
  Stream #1:0 (h264) -> settb:default
  ssim:default -> Stream #0:0 (wrapped_avframe)
  Stream #0:1 -> #0:1 (aac (native) -> pcm_s16le (native))
Output #0, null, to 'pipe:':
  Metadata:
    COMPATIBLE_BRANDS: isomiso2avc1mp41
    MAJOR_BRAND     : isom
    MINOR_VERSION   : 512
    encoder         : Lavf61.7.100
  Stream #0:0: Video: wrapped_avframe, yuv420p10le(tv, bt709, progressive), 1920x1080 [SAR 1:1 DAR 16:9], q=2-31, 200 kb/s, 23.98 fps, 23.98 tbn
      Metadata:
        encoder         : Lavc61.19.100 wrapped_avframe
  Stream #0:1: Audio: pcm_s16le, 48000 Hz, stereo, s16, 1536 kb/s (default)
      Metadata:
        HANDLER_NAME    : SoundHandler
        VENDOR_ID       : [0][0][0][0]
        _STATISTICS_TAGS: BPS DURATION NUMBER_OF_FRAMES NUMBER_OF_BYTES
        BPS             : 193194
        DURATION        : 00:24:06.784000000
        NUMBER_OF_FRAMES: 67819
        NUMBER_OF_BYTES : 34938755
        _STATISTICS_WRITING_APP: mkvpropedit v94.0 ('Initiate') 64-bit
        _STATISTICS_WRITING_DATE_UTC: 2026-01-19 18:23:55
        encoder         : Lavc61.19.100 pcm_s16le
frame=  130 fps=0.0 q=-0.0 size=N/A time=00:00:05.42 bitrate=N/A speed=10.7x    frame=  320 fps=309 q=-0.0 size=N/A time=00:00:13.34 bitrate=N/A speed=12.9x    frame=  500 fps=324 q=-0.0 size=N/A time=00:00:20.85 bitrate=N/A speed=13.5x    frame=  681 fps=331 q=-0.0 size=N/A time=00:00:28.40 bitrate=N/A speed=13.8x    frame=  868 fps=338 q=-0.0 size=N/A time=00:00:36.20 bitrate=N/A speed=14.1x    frame= 1001 fps=324 q=-0.0 size=N/A time=00:00:41.75 bitrate=N/A speed=13.5x    frame= 1172 fps=325 q=-0.0 size=N/A time=00:00:48.88 bitrate=N/A speed=13.6x    frame= 1328 fps=323 q=-0.0 size=N/A time=00:00:55.38 bitrate=N/A speed=13.5x    frame= 1494 fps=322 q=-0.0 size=N/A time=00:01:02.31 bitrate=N/A speed=13.4x    frame= 1633 fps=317 q=-0.0 size=N/A time=00:01:08.10 bitrate=N/A speed=13.2x    frame= 1781 fps=314 q=-0.0 size=N/A time=00:01:14.28 bitrate=N/A speed=13.1x    frame= 1935 fps=313 q=-0.0 size=N/A time=00:01:20.70 bitrate=N/A speed=13.1x    frame= 2074 fps=309 q=-0.0 size=N/A time=00:01:26.50 bitrate=N/A speed=12.9x    frame= 2211 fps=306 q=-0.0 size=N/A time=00:01:32.21 bitrate=N/A speed=12.8x    frame= 2363 fps=306 q=-0.0 size=N/A time=00:01:38.55 bitrate=N/A speed=12.8x    frame= 2491 fps=302 q=-0.0 size=N/A time=00:01:43.89 bitrate=N/A speed=12.6x    frame= 2656 fps=303 q=-0.0 size=N/A time=00:01:50.77 bitrate=N/A speed=12.6x    frame= 2830 fps=305 q=-0.0 size=N/A time=00:01:58.03 bitrate=N/A speed=12.7x    frame= 3008 fps=307 q=-0.0 size=N/A time=00:02:05.45 bitrate=N/A speed=12.8x    frame= 3190 fps=310 q=-0.0 size=N/A time=00:02:13.04 bitrate=N/A speed=12.9x    frame= 3384 fps=312 q=-0.0 size=N/A time=00:02:21.14 bitrate=N/A speed=  13x    frame= 3566 fps=314 q=-0.0 size=N/A time=00:02:28.73 bitrate=N/A speed=13.1x    frame= 3759 fps=317 q=-0.0 size=N/A time=00:02:36.78 bitrate=N/A speed=13.2x    frame= 3940 fps=319 q=-0.0 size=N/A time=00:02:44.33 bitrate=N/A speed=13.3x    frame= 4134 fps=321 q=-0.0 size=N/A time=00:02:52.42 bitrate=N/A speed=13.4x    frame= 4319 fps=322 q=-0.0 size=N/A time=00:03:00.13 bitrate=N/A speed=13.4x    frame= 4500 fps=323 q=-0.0 size=N/A time=00:03:07.68 bitrate=N/A speed=13.5x    frame= 4695 fps=325 q=-0.0 size=N/A time=00:03:15.82 bitrate=N/A speed=13.6x    frame= 4880 fps=326 q=-0.0 size=N/A time=00:03:23.53 bitrate=N/A speed=13.6x    frame= 5069 fps=328 q=-0.0 size=N/A time=00:03:31.41 bitrate=N/A speed=13.7x    frame= 5258 fps=329 q=-0.0 size=N/A time=00:03:39.30 bitrate=N/A speed=13.7x    frame= 5446 fps=330 q=-0.0 size=N/A time=00:03:47.14 bitrate=N/A speed=13.8x    frame= 5633 fps=331 q=-0.0 size=N/A time=00:03:54.94 bitrate=N/A speed=13.8x    frame= 5814 fps=332 q=-0.0 size=N/A time=00:04:02.49 bitrate=N/A speed=13.8x    frame= 6008 fps=333 q=-0.0 size=N/A time=00:04:10.58 bitrate=N/A speed=13.9x    frame= 6194 fps=334 q=-0.0 size=N/A time=00:04:18.34 bitrate=N/A speed=13.9x    frame= 6379 fps=334 q=-0.0 size=N/A time=00:04:26.05 bitrate=N/A speed=  14x    frame= 6564 fps=335 q=-0.0 size=N/A time=00:04:33.77 bitrate=N/A speed=  14x    frame= 6757 fps=336 q=-0.0 size=N/A time=00:04:41.82 bitrate=N/A speed=  14x    frame= 6943 fps=337 q=-0.0 size=N/A time=00:04:49.58 bitrate=N/A speed=  14x    frame= 7125 fps=337 q=-0.0 size=N/A time=00:04:57.17 bitrate=N/A speed=14.1x    frame= 7306 fps=338 q=-0.0 size=N/A time=00:05:04.72 bitrate=N/A speed=14.1x    frame= 7497 fps=338 q=-0.0 size=N/A time=00:05:12.68 bitrate=N/A speed=14.1x    frame= 7675 fps=338 q=-0.0 size=N/A time=00:05:20.11 bitrate=N/A speed=14.1x    frame= 7850 fps=338 q=-0.0 size=N/A time=00:05:27.41 bitrate=N/A speed=14.1x    frame= 8023 fps=338 q=-0.0 size=N/A time=00:05:34.62 bitrate=N/A speed=14.1x    frame= 8212 fps=339 q=-0.0 size=N/A time=00:05:42.50 bitrate=N/A speed=14.1x    frame= 8400 fps=339 q=-0.0 size=N/A time=00:05:50.35 bitrate=N/A speed=14.2x    frame= 8581 fps=340 q=-0.0 size=N/A time=00:05:57.89 bitrate=N/A speed=14.2x    frame= 8774 fps=340 q=-0.0 size=N/A time=00:06:05.94 bitrate=N/A speed=14.2x    frame= 8962 fps=341 q=-0.0 size=N/A time=00:06:13.79 bitrate=N/A speed=14.2x    frame= 9129 fps=340 q=-0.0 size=N/A time=00:06:20.75 bitrate=N/A speed=14.2x    frame= 9301 fps=340 q=-0.0 size=N/A time=00:06:27.92 bitrate=N/A speed=14.2x    frame= 9482 fps=340 q=-0.0 size=N/A time=00:06:35.47 bitrate=N/A speed=14.2x    frame= 9669 fps=341 q=-0.0 size=N/A time=00:06:43.27 bitrate=N/A speed=14.2x    frame= 9851 fps=341 q=-0.0 size=N/A time=00:06:50.86 bitrate=N/A speed=14.2x    frame=10029 fps=341 q=-0.0 size=N/A time=00:06:58.29 bitrate=N/A speed=14.2x    frame=10209 fps=341 q=-0.0 size=N/A time=00:07:05.80 bitrate=N/A speed=14.2x    frame=10393 fps=341 q=-0.0 size=N/A time=00:07:13.47 bitrate=N/A speed=14.2x    frame=10572 fps=342 q=-0.0 size=N/A time=00:07:20.94 bitrate=N/A speed=14.2x    frame=10756 fps=342 q=-0.0 size=N/A time=00:07:28.61 bitrate=N/A speed=14.3x    frame=10946 fps=342 q=-0.0 size=N/A time=00:07:36.53 bitrate=N/A speed=14.3x    frame=11134 fps=343 q=-0.0 size=N/A time=00:07:44.38 bitrate=N/A speed=14.3x    frame=11312 fps=343 q=-0.0 size=N/A time=00:07:51.80 bitrate=N/A speed=14.3x    frame=11496 fps=343 q=-0.0 size=N/A time=00:07:59.47 bitrate=N/A speed=14.3x    frame=11683 fps=343 q=-0.0 size=N/A time=00:08:07.27 bitrate=N/A speed=14.3x    frame=11872 fps=344 q=-0.0 size=N/A time=00:08:15.16 bitrate=N/A speed=14.3x    frame=12063 fps=344 q=-0.0 size=N/A time=00:08:23.12 bitrate=N/A speed=14.3x    frame=12242 fps=344 q=-0.0 size=N/A time=00:08:30.59 bitrate=N/A speed=14.3x    frame=12435 fps=344 q=-0.0 size=N/A time=00:08:38.64 bitrate=N/A speed=14.4x    frame=12624 fps=345 q=-0.0 size=N/A time=00:08:46.52 bitrate=N/A speed=14.4x    frame=12804 fps=345 q=-0.0 size=N/A time=00:08:54.03 bitrate=N/A speed=14.4x    frame=12997 fps=345 q=-0.0 size=N/A time=00:09:02.08 bitrate=N/A speed=14.4x    frame=13174 fps=345 q=-0.0 size=N/A time=00:09:09.46 bitrate=N/A speed=14.4x    frame=13358 fps=345 q=-0.0 size=N/A time=00:09:17.13 bitrate=N/A speed=14.4x    frame=13533 fps=345 q=-0.0 size=N/A time=00:09:24.43 bitrate=N/A speed=14.4x    frame=13721 fps=345 q=-0.0 size=N/A time=00:09:32.28 bitrate=N/A speed=14.4x    frame=13895 fps=345 q=-0.0 size=N/A time=00:09:39.53 bitrate=N/A speed=14.4x    frame=14075 fps=345 q=-0.0 size=N/A time=00:09:47.04 bitrate=N/A speed=14.4x    frame=14241 fps=345 q=-0.0 size=N/A time=00:09:53.96 bitrate=N/A speed=14.4x    frame=14421 fps=345 q=-0.0 size=N/A time=00:10:01.47 bitrate=N/A speed=14.4x    frame=14597 fps=345 q=-0.0 size=N/A time=00:10:08.81 bitrate=N/A speed=14.4x    frame=14784 fps=345 q=-0.0 size=N/A time=00:10:16.61 bitrate=N/A speed=14.4x    frame=14956 fps=345 q=-0.0 size=N/A time=00:10:23.78 bitrate=N/A speed=14.4x    frame=15120 fps=345 q=-0.0 size=N/A time=00:10:30.63 bitrate=N/A speed=14.4x    frame=15288 fps=345 q=-0.0 size=N/A time=00:10:37.63 bitrate=N/A speed=14.4x    frame=15472 fps=345 q=-0.0 size=N/A time=00:10:45.31 bitrate=N/A speed=14.4x    frame=15650 fps=345 q=-0.0 size=N/A time=00:10:52.73 bitrate=N/A speed=14.4x    frame=15830 fps=345 q=-0.0 size=N/A time=00:11:00.24 bitrate=N/A speed=14.4x    frame=16010 fps=345 q=-0.0 size=N/A time=00:11:07.75 bitrate=N/A speed=14.4x    frame=16196 fps=345 q=-0.0 size=N/A time=00:11:15.50 bitrate=N/A speed=14.4x    frame=16372 fps=345 q=-0.0 size=N/A time=00:11:22.84 bitrate=N/A speed=14.4x    frame=16556 fps=345 q=-0.0 size=N/A time=00:11:30.52 bitrate=N/A speed=14.4x    frame=16734 fps=345 q=-0.0 size=N/A time=00:11:37.94 bitrate=N/A speed=14.4x    frame=16907 fps=345 q=-0.0 size=N/A time=00:11:45.16 bitrate=N/A speed=14.4x    frame=17098 fps=345 q=-0.0 size=N/A time=00:11:53.12 bitrate=N/A speed=14.4x    frame=17278 fps=345 q=-0.0 size=N/A time=00:12:00.63 bitrate=N/A speed=14.4x    frame=17458 fps=345 q=-0.0 size=N/A time=00:12:08.14 bitrate=N/A speed=14.4x    frame=17634 fps=345 q=-0.0 size=N/A time=00:12:15.48 bitrate=N/A speed=14.4x    frame=17815 fps=345 q=-0.0 size=N/A time=00:12:23.03 bitrate=N/A speed=14.4x    frame=17990 fps=345 q=-0.0 size=N/A time=00:12:30.33 bitrate=N/A speed=14.4x    frame=18168 fps=345 q=-0.0 size=N/A time=00:12:37.75 bitrate=N/A speed=14.4x    frame=18339 fps=345 q=-0.0 size=N/A time=00:12:44.88 bitrate=N/A speed=14.4x    frame=18524 fps=345 q=-0.0 size=N/A time=00:12:52.60 bitrate=N/A speed=14.4x    frame=18712 fps=345 q=-0.0 size=N/A time=00:13:00.44 bitrate=N/A speed=14.4x    frame=18899 fps=346 q=-0.0 size=N/A time=00:13:08.24 bitrate=N/A speed=14.4x    frame=19085 fps=346 q=-0.0 size=N/A time=00:13:16.00 bitrate=N/A speed=14.4x    frame=19267 fps=346 q=-0.0 size=N/A time=00:13:23.59 bitrate=N/A speed=14.4x    frame=19451 fps=346 q=-0.0 size=N/A time=00:13:31.26 bitrate=N/A speed=14.4x    frame=19632 fps=346 q=-0.0 size=N/A time=00:13:38.81 bitrate=N/A speed=14.4x    frame=19817 fps=346 q=-0.0 size=N/A time=00:13:46.53 bitrate=N/A speed=14.4x    frame=20000 fps=346 q=-0.0 size=N/A time=00:13:54.16 bitrate=N/A speed=14.4x    frame=20191 fps=346 q=-0.0 size=N/A time=00:14:02.13 bitrate=N/A speed=14.4x    frame=20374 fps=346 q=-0.0 size=N/A time=00:14:09.76 bitrate=N/A speed=14.4x    frame=20543 fps=346 q=-0.0 size=N/A time=00:14:16.81 bitrate=N/A speed=14.4x    frame=20725 fps=346 q=-0.0 size=N/A time=00:14:24.40 bitrate=N/A speed=14.4x    frame=20917 fps=347 q=-0.0 size=N/A time=00:14:32.41 bitrate=N/A speed=14.5x    frame=21099 fps=347 q=-0.0 size=N/A time=00:14:40.00 bitrate=N/A speed=14.5x    frame=21274 fps=347 q=-0.0 size=N/A time=00:14:47.30 bitrate=N/A speed=14.5x    frame=21456 fps=347 q=-0.0 size=N/A time=00:14:54.89 bitrate=N/A speed=14.5x    frame=21636 fps=347 q=-0.0 size=N/A time=00:15:02.40 bitrate=N/A speed=14.5x    frame=21817 fps=347 q=-0.0 size=N/A time=00:15:09.95 bitrate=N/A speed=14.5x    frame=21996 fps=347 q=-0.0 size=N/A time=00:15:17.41 bitrate=N/A speed=14.5x    frame=22180 fps=347 q=-0.0 size=N/A time=00:15:25.09 bitrate=N/A speed=14.5x    frame=22357 fps=347 q=-0.0 size=N/A time=00:15:32.47 bitrate=N/A speed=14.5x    frame=22543 fps=347 q=-0.0 size=N/A time=00:15:40.23 bitrate=N/A speed=14.5x    frame=22733 fps=347 q=-0.0 size=N/A time=00:15:48.15 bitrate=N/A speed=14.5x    frame=22911 fps=347 q=-0.0 size=N/A time=00:15:55.57 bitrate=N/A speed=14.5x    frame=23104 fps=347 q=-0.0 size=N/A time=00:16:03.62 bitrate=N/A speed=14.5x    frame=23287 fps=347 q=-0.0 size=N/A time=00:16:11.26 bitrate=N/A speed=14.5x    frame=23475 fps=347 q=-0.0 size=N/A time=00:16:19.10 bitrate=N/A speed=14.5x    frame=23658 fps=347 q=-0.0 size=N/A time=00:16:26.73 bitrate=N/A speed=14.5x    frame=23846 fps=347 q=-0.0 size=N/A time=00:16:34.57 bitrate=N/A speed=14.5x    frame=24029 fps=348 q=-0.0 size=N/A time=00:16:42.20 bitrate=N/A speed=14.5x    frame=24211 fps=348 q=-0.0 size=N/A time=00:16:49.80 bitrate=N/A speed=14.5x    frame=24394 fps=348 q=-0.0 size=N/A time=00:16:57.43 bitrate=N/A speed=14.5x    frame=24579 fps=348 q=-0.0 size=N/A time=00:17:05.14 bitrate=N/A speed=14.5x    frame=24764 fps=348 q=-0.0 size=N/A time=00:17:12.86 bitrate=N/A speed=14.5x    frame=24948 fps=348 q=-0.0 size=N/A time=00:17:20.53 bitrate=N/A speed=14.5x    frame=25127 fps=348 q=-0.0 size=N/A time=00:17:28.00 bitrate=N/A speed=14.5x    frame=25311 fps=348 q=-0.0 size=N/A time=00:17:35.67 bitrate=N/A speed=14.5x    frame=25495 fps=348 q=-0.0 size=N/A time=00:17:43.35 bitrate=N/A speed=14.5x    frame=25683 fps=348 q=-0.0 size=N/A time=00:17:51.19 bitrate=N/A speed=14.5x    frame=25856 fps=348 q=-0.0 size=N/A time=00:17:58.41 bitrate=N/A speed=14.5x    frame=26036 fps=348 q=-0.0 size=N/A time=00:18:05.91 bitrate=N/A speed=14.5x    frame=26214 fps=348 q=-0.0 size=N/A time=00:18:13.34 bitrate=N/A speed=14.5x    frame=26406 fps=348 q=-0.0 size=N/A time=00:18:21.35 bitrate=N/A speed=14.5x    frame=26581 fps=348 q=-0.0 size=N/A time=00:18:28.64 bitrate=N/A speed=14.5x    frame=26762 fps=348 q=-0.0 size=N/A time=00:18:36.19 bitrate=N/A speed=14.5x    frame=26929 fps=348 q=-0.0 size=N/A time=00:18:43.16 bitrate=N/A speed=14.5x    frame=27102 fps=348 q=-0.0 size=N/A time=00:18:50.37 bitrate=N/A speed=14.5x    frame=27275 fps=348 q=-0.0 size=N/A time=00:18:57.59 bitrate=N/A speed=14.5x    frame=27450 fps=348 q=-0.0 size=N/A time=00:19:04.89 bitrate=N/A speed=14.5x    frame=27627 fps=348 q=-0.0 size=N/A time=00:19:12.27 bitrate=N/A speed=14.5x    frame=27815 fps=348 q=-0.0 size=N/A time=00:19:20.11 bitrate=N/A speed=14.5x    frame=27997 fps=348 q=-0.0 size=N/A time=00:19:27.70 bitrate=N/A speed=14.5x    frame=28173 fps=348 q=-0.0 size=N/A time=00:19:35.04 bitrate=N/A speed=14.5x    frame=28356 fps=348 q=-0.0 size=N/A time=00:19:42.68 bitrate=N/A speed=14.5x    frame=28529 fps=348 q=-0.0 size=N/A time=00:19:49.93 bitrate=N/A speed=14.5x    frame=28711 fps=348 q=-0.0 size=N/A time=00:19:57.48 bitrate=N/A speed=14.5x    frame=28870 fps=348 q=-0.0 size=N/A time=00:20:04.11 bitrate=N/A speed=14.5x    frame=29038 fps=347 q=-0.0 size=N/A time=00:20:11.12 bitrate=N/A speed=14.5x    frame=29211 fps=347 q=-0.0 size=N/A time=00:20:18.34 bitrate=N/A speed=14.5x    frame=29380 fps=347 q=-0.0 size=N/A time=00:20:25.39 bitrate=N/A speed=14.5x    frame=29550 fps=347 q=-0.0 size=N/A time=00:20:32.48 bitrate=N/A speed=14.5x    frame=29719 fps=347 q=-0.0 size=N/A time=00:20:39.52 bitrate=N/A speed=14.5x    frame=29891 fps=347 q=-0.0 size=N/A time=00:20:46.70 bitrate=N/A speed=14.5x    frame=30048 fps=347 q=-0.0 size=N/A time=00:20:53.25 bitrate=N/A speed=14.5x    frame=30225 fps=347 q=-0.0 size=N/A time=00:21:00.63 bitrate=N/A speed=14.5x    frame=30401 fps=347 q=-0.0 size=N/A time=00:21:07.97 bitrate=N/A speed=14.5x    frame=30583 fps=347 q=-0.0 size=N/A time=00:21:15.56 bitrate=N/A speed=14.5x    frame=30752 fps=347 q=-0.0 size=N/A time=00:21:22.61 bitrate=N/A speed=14.5x    frame=30938 fps=347 q=-0.0 size=N/A time=00:21:30.37 bitrate=N/A speed=14.5x    frame=31110 fps=347 q=-0.0 size=N/A time=00:21:37.54 bitrate=N/A speed=14.5x    frame=31287 fps=346 q=-0.0 size=N/A time=00:21:44.92 bitrate=N/A speed=14.5x    frame=31452 fps=346 q=-0.0 size=N/A time=00:21:51.81 bitrate=N/A speed=14.4x    frame=31630 fps=346 q=-0.0 size=N/A time=00:21:59.23 bitrate=N/A speed=14.4x    frame=31804 fps=346 q=-0.0 size=N/A time=00:22:06.49 bitrate=N/A speed=14.4x    frame=31976 fps=346 q=-0.0 size=N/A time=00:22:13.66 bitrate=N/A speed=14.4x    frame=32145 fps=346 q=-0.0 size=N/A time=00:22:20.71 bitrate=N/A speed=14.4x    frame=32331 fps=346 q=-0.0 size=N/A time=00:22:28.47 bitrate=N/A speed=14.4x    frame=32509 fps=346 q=-0.0 size=N/A time=00:22:35.89 bitrate=N/A speed=14.4x    frame=32659 fps=346 q=-0.0 size=N/A time=00:22:42.15 bitrate=N/A speed=14.4x    frame=32814 fps=346 q=-0.0 size=N/A time=00:22:48.61 bitrate=N/A speed=14.4x    frame=32980 fps=346 q=-0.0 size=N/A time=00:22:55.54 bitrate=N/A speed=14.4x    frame=33151 fps=345 q=-0.0 size=N/A time=00:23:02.67 bitrate=N/A speed=14.4x    frame=33321 fps=345 q=-0.0 size=N/A time=00:23:09.76 bitrate=N/A speed=14.4x    frame=33482 fps=345 q=-0.0 size=N/A time=00:23:16.47 bitrate=N/A speed=14.4x    frame=33633 fps=345 q=-0.0 size=N/A time=00:23:22.77 bitrate=N/A speed=14.4x    frame=33764 fps=344 q=-0.0 size=N/A time=00:23:28.24 bitrate=N/A speed=14.4x    frame=33891 fps=344 q=-0.0 size=N/A time=00:23:33.53 bitrate=N/A speed=14.3x    frame=34045 fps=344 q=-0.0 size=N/A time=00:23:39.96 bitrate=N/A speed=14.3x    frame=34202 fps=343 q=-0.0 size=N/A time=00:23:46.50 bitrate=N/A speed=14.3x    frame=34342 fps=343 q=-0.0 size=N/A time=00:23:52.34 bitrate=N/A speed=14.3x    frame=34471 fps=343 q=-0.0 size=N/A time=00:23:57.72 bitrate=N/A speed=14.3x    frame=34649 fps=343 q=-0.0 size=N/A time=00:24:05.15 bitrate=N/A speed=14.3x    [Parsed_ssim_16 @ 00000199d38c9680] SSIM Y:0.994213 (22.375486) U:0.994010 (22.225841) V:0.993616 (21.948905) All:0.994080 (22.276541)
[out#0/null @ 00000199c5cdfe80] video:14903KiB audio:271276KiB subtitle:0KiB other streams:0KiB global headers:0KiB muxing overhead: unknown
frame=34683 fps=343 q=-0.0 Lsize=N/A time=00:24:06.57 bitrate=N/A speed=14.3x    
